#!OML:ASF H:\Terrain\Patient Classification 1\Animal2\Wednesday\Animal2.ASF
:FULLY-SPECIFIED
:DEGREES
1228
root 3.35763 17.0358 -14.4482 -10.0992 -24.9402 7.72116
lowerback 6.94888 -2.38845 -0.806124
upperback 0.142382 -3.32197 -1.74271
thorax -3.80451 -1.65336 -1.01158
lowerneck 5.68765 -0.503879 11.2736
upperneck -12.8223 -2.76847 -23.6527
head -5.1686 -0.589026 -9.51686
rclavicle 4.14715e-014 -2.38542e-015
rhumerus -10.4349 -2.07286 -63.5591
rradius 97.3184
rwrist -44.724
rhand -27.2336 -9.01961
rfingers 7.12502
rthumb -0.645694 -38.9984
lclavicle 4.14715e-014 -2.38542e-015
lhumerus -6.91373 27.0344 41.9465
lradius 120.109
lwrist 60.1289
lhand -23.5188 39.9392
lfingers 7.12502
lthumb 2.94204 69.8987
rfemur -24.3994 7.02134 9.09559
rtibia 53.6708
rfoot -17.535 -2.89079
rtoes -14.3337
lfemur -4.73489 -6.93253 -4.86173
ltibia 50.0391
lfoot -0.792205 -7.94566
ltoes -20.6635
1229
root 3.28139 16.9406 -14.3844 -10.3817 -25.2617 7.95825
lowerback 6.80994 -2.48913 -0.739488
upperback 0.153126 -3.45634 -1.92861
thorax -3.73314 -1.72389 -1.2334
lowerneck 6.26087 -0.421546 11.4774
upperneck -13.9181 -2.79125 -23.6568
head -5.60628 -0.540479 -9.61469
rclavicle 3.43401e-014 -1.11319e-014
rhumerus -10.5303 -2.03116 -65.3138
rradius 97.5324
rwrist -44.8513
rhand -27.2256 -9.3425
rfingers 7.12502
rthumb -0.637976 -39.3213
lclavicle 3.43401e-014 -1.11319e-014
lhumerus -8.0061 27.1103 42.1743
lradius 121.731
lwrist 61.3932
lhand -23.5283 39.8371
lfingers 7.12502
lthumb 2.93294 69.7967
rfemur -24.4345 7.36502 9.22314
rtibia 54.7051
rfoot -19.0234 -3.81943
rtoes -15.1227
lfemur -4.99182 -6.98125 -4.79592
ltibia 50.1619
lfoot -2.21535 -7.64728
ltoes -21.463
1230
root 3.21244 16.8353 -14.3253 -10.678 -25.6908 8.05664
lowerback 6.96354 -2.47409 -0.713941
upperback 0.153377 -3.44104 -2.01008
thorax -3.82542 -1.71737 -1.32636
lowerneck 6.29634 -0.326749 11.9155
upperneck -14.6064 -2.74933 -23.8184
head -5.81377 -0.511826 -9.7988
rclavicle -1.80646e-014 7.15625e-015
rhumerus -10.7959 -2.06145 -66.9502
rradius 97.7982
rwrist -44.8507
rhand -27.8445 -9.73289
rfingers 7.12502
rthumb -1.23569 -39.7091
lclavicle -1.80646e-014 7.15625e-015
lhumerus -8.12632 26.854 43.7427
lradius 122.72
lwrist 61.1477
lhand -22.4982 39.6325
lfingers 7.12502
lthumb 3.92763 69.5761
rfemur -24.2748 7.82281 9.49948
rtibia 55.5098
rfoot -20.5796 -4.93344
rtoes -16.2923
lfemur -5.18399 -6.85918 -4.52225
ltibia 50.2455
lfoot -3.53426 -7.41108
ltoes -23.4532
1231
root 3.14985 16.7366 -14.2673 -10.8393 -26.1699 8.07154
lowerback 7.04596 -2.38509 -0.604058
upperback 0.120736 -3.31741 -2.04312
thorax -3.91122 -1.65819 -1.43028
lowerneck 6.17387 -0.258434 12.4079
upperneck -15.128 -2.74156 -24.1138
head -5.95038 -0.511814 -10.0348
rclavicle 2.99419e-014 1.94809e-014
rhumerus -11.2452 -2.29438 -68.4296
rradius 98.1274
rwrist -45.094
rhand -28.0575 -9.77141
rfingers 7.12502
rthumb -1.44145 -39.7463
lclavicle 2.99419e-014 1.94809e-014
lhumerus -8.31267 26.6119 45.4192
lradius 123.888
lwrist 60.7457
lhand -20.8959 40.2279
lfingers 7.12502
lthumb 5.4749 70.1372
rfemur -24.1517 8.3927 9.825
rtibia 56.1674
rfoot -22.254 -5.85723
rtoes -16.3742
lfemur -5.43616 -6.74175 -4.18063
ltibia 50.2591
lfoot -4.61693 -7.11607
ltoes -24.5988
1232
root 3.09153 16.6595 -14.2076 -10.8239 -26.6273 8.0149
lowerback 6.9976 -2.35411 -0.441034
upperback 0.0335432 -3.26183 -1.99909
thorax -3.97973 -1.63324 -1.48174
lowerneck 6.03934 -0.0921021 12.578
upperneck -15.6609 -2.60994 -24.2212
head -6.05808 -0.446003 -10.145
rclavicle -2.9122e-014 5.96354e-015
rhumerus -11.6806 -2.18644 -69.7869
rradius 98.3806
rwrist -44.7196
rhand -28.34 -9.87864
rfingers 7.12502
rthumb -1.71432 -39.8515
lclavicle -2.9122e-014 5.96354e-015
lhumerus -8.83589 26.3553 46.744
lradius 125.102
lwrist 60.5642
lhand -19.6847 40.6318
lfingers 7.12502
lthumb 6.6442 70.5076
rfemur -24.1451 8.96349 10.1827
rtibia 56.7671
rfoot -23.8726 -6.55803
rtoes -15.4611
lfemur -5.77155 -6.82947 -3.85885
ltibia 50.1619
lfoot -5.52696 -6.69693
ltoes -23.8019
1233
root 3.03694 16.5853 -14.1513 -10.913 -27.0932 8.22608
lowerback 6.97948 -2.35397 -0.606174
upperback -0.0952822 -3.27732 -1.99319
thorax -4.09409 -1.63756 -1.37954
lowerneck 5.73613 0.172668 12.8672
upperneck -15.9376 -2.30305 -24.4158
head -6.01899 -0.315003 -10.3043
rclavicle 8.43841e-014 1.98785e-014
rhumerus -12.0357 -2.04547 -71.3237
rradius 98.6285
rwrist -44.2002
rhand -28.3993 -10.4423
rfingers 7.12502
rthumb -1.77155 -40.4147
lclavicle 8.43841e-014 1.98785e-014
lhumerus -9.36187 26.1373 47.9378
lradius 126.11
lwrist 60.6295
lhand -18.4963 40.5613
lfingers 7.12502
lthumb 7.79132 70.3978
rfemur -24.2134 9.53831 10.2646
rtibia 57.4138
rfoot -25.112 -7.53075
rtoes -16.5039
lfemur -6.02297 -6.81667 -3.79036
ltibia 49.9495
lfoot -6.59521 -6.45266
ltoes -23.6248
1234
root 2.98823 16.5093 -14.0996 -11.0944 -27.6116 8.63337
lowerback 7.02681 -2.2732 -0.944377
upperback -0.200377 -3.20371 -2.04812
thorax -4.21297 -1.59436 -1.25087
lowerneck 5.32011 0.400811 13.3932
upperneck -16.2012 -2.05389 -24.7658
head -5.96549 -0.225101 -10.5651
rclavicle 2.08724e-014 -3.97569e-015
rhumerus -12.4425 -2.24721 -72.7786
rradius 99.0852
rwrist -44.7818
rhand -27.9563 -10.5189
rfingers 7.12502
rthumb -1.34369 -40.4945
lclavicle 2.08724e-014 -3.97569e-015
lhumerus -9.56982 25.9241 49.3908
lradius 127.161
lwrist 60.9899
lhand -17.0262 40.7474
lfingers 7.12502
lthumb 9.21004 70.5263
rfemur -24.4549 10.1383 10.1446
rtibia 58.1894
rfoot -25.8724 -8.62358
rtoes -18.4492
lfemur -6.21852 -6.69648 -3.89814
ltibia 49.6402
lfoot -7.57162 -6.41109
ltoes -24.4159
1235
root 2.94605 16.4491 -14.0498 -10.8918 -28.2837 8.52537
lowerback 6.92496 -2.19245 -0.812865
upperback -0.283528 -3.07824 -1.91156
thorax -4.23895 -1.53311 -1.19876
lowerneck 5.18985 0.577749 13.4719
upperneck -16.9724 -1.94495 -24.7474
head -6.14733 -0.169361 -10.6243
rclavicle -7.45443e-014 -2.78299e-014
rhumerus -12.7889 -2.1144 -73.9068
rradius 99.4911
rwrist -45.4137
rhand -27.9045 -10.1869
rfingers 7.12502
rthumb -1.29372 -40.1627
lclavicle -7.45443e-014 -2.78299e-014
lhumerus -9.82816 25.7727 50.9428
lradius 128.306
lwrist 61.3535
lhand -15.4472 40.9179
lfingers 7.12502
lthumb 10.7334 70.6237
rfemur -25.0233 10.8007 10.5094
rtibia 59.0421
rfoot -26.2518 -9.26553
rtoes -18.7227
lfemur -6.56441 -6.63136 -3.48296
ltibia 49.2878
lfoot -8.01455 -6.34071
ltoes -22.4822
1236
root 2.9098 16.3974 -13.9982 -10.7309 -28.9517 8.49003
lowerback 6.76487 -2.10389 -0.705151
upperback -0.373892 -2.94432 -1.79034
thorax -4.23913 -1.46754 -1.15203
lowerneck 5.26366 0.690779 13.304
upperneck -17.8193 -1.92383 -24.553
head -6.41306 -0.13852 -10.5724
rclavicle 1.96797e-014 -2.38542e-015
rhumerus -13.2512 -1.80795 -74.9311
rradius 99.8111
rwrist -45.6383
rhand -27.8824 -10.2079
rfingers 7.12502
rthumb -1.27229 -40.1839
lclavicle 1.96797e-014 -2.38542e-015
lhumerus -10.0873 25.5983 52.4121
lradius 129.234
lwrist 61.8039
lhand -13.7122 41.1803
lfingers 7.12502
lthumb 12.4066 70.7921
rfemur -25.6454 11.3433 10.7254
rtibia 59.9255
rfoot -26.6763 -9.38721
rtoes -18.218
lfemur -6.79609 -6.69346 -3.22112
ltibia 48.9044
lfoot -8.38251 -5.96429
ltoes -21.9247
1237
root 2.87543 16.3399 -13.9499 -10.9547 -29.4991 8.81254
lowerback 6.89853 -2.01766 -1.0077
upperback -0.46602 -2.85738 -1.75769
thorax -4.39218 -1.41643 -0.951416
lowerneck 5.1207 0.869009 13.4605
upperneck -18.3115 -1.78824 -24.7374
head -6.50443 -0.0722827 -10.7131
rclavicle 3.44394e-014 2.06736e-014
rhumerus -13.8618 -1.59231 -76.0512
rradius 100.087
rwrist -45.8179
rhand -27.4157 -10.3033
rfingers 7.12502
rthumb -0.821558 -40.2814
lclavicle 3.44394e-014 2.06736e-014
lhumerus -10.3049 25.3948 53.7509
lradius 129.909
lwrist 62.2638
lhand -12.0918 41.403
lfingers 7.12502
lthumb 13.9686 70.9138
rfemur -25.9895 11.6765 10.5715
rtibia 60.7689
rfoot -27.3626 -9.31126
rtoes -17.8013
lfemur -6.76526 -6.88748 -3.36852
ltibia 48.4976
lfoot -8.82195 -5.4007
ltoes -24.0777
1238
root 2.84093 16.2854 -13.9054 -11.1068 -30.0666 8.82154
lowerback 7.20504 -2.01649 -1.1303
upperback -0.567865 -2.86947 -1.64023
thorax -4.65899 -1.41603 -0.746707
lowerneck 5.03144 1.18261 13.9663
upperneck -18.884 -1.47132 -25.1969
head -6.5867 0.0786411 -11.0504
rclavicle -1.28067e-013 -1.66979e-014
rhumerus -14.4532 -1.26881 -77.255
rradius 100.395
rwrist -45.8144
rhand -26.837 -10.5182
rfingers 7.12502
rthumb -0.262647 -40.4978
lclavicle -1.28067e-013 -1.66979e-014
lhumerus -10.6592 25.2131 54.8728
lradius 130.471
lwrist 62.3769
lhand -10.4685 41.1689
lfingers 7.12502
lthumb 15.5325 70.565
rfemur -26.1466 11.9065 10.751
rtibia 61.483
rfoot -28.1366 -9.21866
rtoes -17.468
lfemur -6.67197 -7.11624 -3.17496
ltibia 48.0675
lfoot -8.99822 -5.00884
ltoes -23.7563
